<svg xmlns="http://www.w3.org/2000/svg" width="23" height="23" viewBox="0 0 16 20" fill="none" size="23">
    <rect fill="none" height="23" width="23"/>
    <path d="M9.81823 8.30502C9.81823 8.30502 10.6041 3.67669 7.39406 1.66669C7.34612 2.46189 7.13105 3.23804 6.76288 3.94451C6.39472 4.65097 5.88173 5.27187 5.25739 5.76669C3.88573 6.97335 1.30573 9.68002 1.33323 12.5742C1.32404 13.8095 1.65991 15.0228 2.303 16.0776C2.9461 17.1323 3.87088 17.9866 4.97323 18.5442C5.01285 17.9864 5.16334 17.442 5.41589 16.9431C5.66845 16.4441 6.01799 16.0006 6.44406 15.6384C6.80531 15.3608 7.10759 15.014 7.33323 14.6182C7.55888 14.2224 7.70336 13.7856 7.75823 13.3334C8.70265 13.835 9.50065 14.5732 10.0741 15.4758C10.6476 16.3784 10.977 17.4145 11.0299 18.4825V18.5C12.0702 18.0227 12.9582 17.267 13.5959 16.3165C14.2335 15.3661 14.596 14.2578 14.6432 13.1142C14.7132 10.7665 13.9241 8.47396 12.4241 6.66669" stroke="orange" stroke-width="2" stroke-miterlimit="10" stroke-linecap="round" stroke-linejoin="round"></path>
</svg>
